<svg width="16" height="16" viewBox="0 0 16 16" fill="none" xmlns="http://www.w3.org/2000/svg">
<path d="M13.3334 14.6665H2.66671C2.31308 14.6665 1.97395 14.526 1.7239 14.276C1.47385 14.0259 1.33337 13.6868 1.33337 13.3332V6.03249C1.34446 5.81214 1.40923 5.59782 1.52205 5.40818C1.63487 5.21854 1.79232 5.05938 1.98071 4.94449L7.31402 1.7445C7.52118 1.6203 7.75817 1.55469 7.9997 1.55469C8.24122 1.55469 8.47821 1.6203 8.68537 1.7445L14.0187 4.94449C14.4194 5.1865 14.6654 5.61984 14.6667 6.08784V13.3332C14.6667 13.6868 14.5262 14.0259 14.2762 14.276C14.0261 14.526 13.687 14.6665 13.3334 14.6665ZM2.66671 6.5785V13.3332H13.3334V6.5785L8.00004 10.1338L2.66671 6.5785ZM8.00004 2.88783L3.54404 5.56117L8.00004 8.53184L12.4554 5.56117L8.00004 2.88783Z" fill="#6CA3E1"/>
</svg>
