<svg width="24" height="24" viewBox="0 0 24 24" fill="none" xmlns="http://www.w3.org/2000/svg">
<g clip-path="url(#clip0_12_2626)">
<path d="M11.75 3C6.63937 3 2.5 7.12937 2.5 12.2276C2.5 16.3109 5.14781 19.7597 8.82469 20.9824C9.28719 21.0631 9.46062 20.7863 9.46062 20.5441C9.46062 20.3249 9.44906 19.5982 9.44906 18.8254C7.125 19.2522 6.52375 18.2602 6.33875 17.7412C6.23469 17.4759 5.78375 16.6569 5.39062 16.4378C5.06687 16.2647 4.60438 15.838 5.37906 15.8264C6.1075 15.8149 6.62781 16.4954 6.80125 16.7723C7.63375 18.1679 8.96344 17.7758 9.49531 17.5335C9.57625 16.9337 9.81906 16.53 10.085 16.2993C8.02687 16.0687 5.87625 15.2728 5.87625 11.7432C5.87625 10.7397 6.23469 9.9092 6.82437 9.26326C6.73187 9.03257 6.40812 8.08674 6.91687 6.81794C6.91687 6.81794 7.69156 6.57571 9.46062 7.76377C10.2006 7.55615 10.9869 7.45234 11.7731 7.45234C12.5594 7.45234 13.3456 7.55615 14.0856 7.76377C15.8547 6.56418 16.6294 6.81794 16.6294 6.81794C17.1381 8.08674 16.8144 9.03257 16.7219 9.26326C17.3116 9.9092 17.67 10.7282 17.67 11.7432C17.67 15.2843 15.5078 16.0687 13.4497 16.2993C13.785 16.5877 14.0741 17.1414 14.0741 18.0065C14.0741 19.2407 14.0625 20.2326 14.0625 20.5441C14.0625 20.7863 14.2359 21.0746 14.6984 20.9824C16.5348 20.3641 18.1306 19.1868 19.261 17.6163C20.3915 16.0458 20.9997 14.1611 21 12.2276C21 7.12937 16.8606 3 11.75 3Z" fill="#446B97"/>
</g>
<defs>
<clipPath id="clip0_12_2626">
<rect width="24" height="24" fill="white"/>
</clipPath>
</defs>
</svg>
