<svg width="16" height="16" viewBox="0 0 16 16" fill="none" xmlns="http://www.w3.org/2000/svg">
<g clip-path="url(#clip0_12_2492)">
<path d="M8 0.197765C3.5805 0.197765 0 3.78126 0 8.19775C0 11.7343 2.292 14.7318 5.4685 15.7893C5.87002 15.8648 6.01501 15.6173 6.01501 15.4033C6.01501 15.2133 6.01051 14.7108 6.0075 14.0438C3.781 14.5257 3.312 12.9683 3.312 12.9683C2.9475 12.0463 2.4215 11.7988 2.4215 11.7988C1.6975 11.3043 2.479 11.3148 2.479 11.3148C3.281 11.3693 3.703 12.1373 3.703 12.1373C4.4165 13.3613 5.57501 13.0073 6.03349 12.8013C6.1035 12.2857 6.312 11.9313 6.53901 11.7337C4.76301 11.5333 2.8955 10.8457 2.8955 7.78026C2.8955 6.90476 3.2055 6.19177 3.718 5.63177C3.6295 5.43127 3.3585 4.61626 3.7885 3.51427C3.7885 3.51427 4.45802 3.30077 5.9885 4.33478C6.64046 4.15744 7.31288 4.06651 7.9885 4.06426C8.6685 4.06876 9.348 4.15775 9.9885 4.33478C11.51 3.30077 12.179 3.51427 12.179 3.51427C12.6085 4.61626 12.3375 5.43078 12.2595 5.63177C12.767 6.19177 13.077 6.90525 13.077 7.78026C13.077 10.8528 11.207 11.5303 9.42899 11.7257C9.70701 11.9653 9.9675 12.4577 9.9675 13.2053C9.9675 14.2753 9.95749 15.1373 9.95749 15.3977C9.95749 15.6057 10.0975 15.8558 10.5095 15.7753C13.7095 14.7288 15.999 11.7288 15.999 8.19725C15.999 3.78077 12.4185 0.197266 7.99901 0.197266L8 0.197765Z" fill="#6CA3E1"/>
</g>
<defs>
<clipPath id="clip0_12_2492">
<rect width="16" height="16" fill="white"/>
</clipPath>
</defs>
</svg>
