<?xml version="1.0" encoding="UTF-8" standalone="no" ?>
<!DOCTYPE svg PUBLIC "-//W3C//DTD SVG 1.1//EN" "http://www.w3.org/Graphics/SVG/1.1/DTD/svg11.dtd">
<svg xmlns="http://www.w3.org/2000/svg" xmlns:xlink="http://www.w3.org/1999/xlink" version="1.1" width="640" height="480" viewBox="0 0 640 480" xml:space="preserve">
<desc>Created with Fabric.js 3.6.6</desc>
<defs>
</defs>
<g transform="matrix(0.67 0 0 0.67 322.67 298.67)"  >
<g style=""   >
		<g transform="matrix(1.33 0 0 1.33 66.73 -94.18)"  >
<path style="stroke: none; stroke-width: 1; stroke-dasharray: none; stroke-linecap: butt; stroke-dashoffset: 0; stroke-linejoin: miter; stroke-miterlimit: 4; fill: rgb(0,0,0); fill-rule: nonzero; opacity: 1;"  transform=" translate(-400.41, -280)" d="m 543.94 280 l -287.07 -253.47 v 153.26 l 113.18 100.21 l -113.18 100.21 v 153.26 z" stroke-linecap="round" />
</g>
		<g transform="matrix(1.33 0 0 1.33 -127.52 -93.67)"  >
<path style="stroke: none; stroke-width: 1; stroke-dasharray: none; stroke-linecap: butt; stroke-dashoffset: 0; stroke-linejoin: miter; stroke-miterlimit: 4; fill: rgb(0,0,0); fill-rule: nonzero; opacity: 1;"  transform=" translate(-254.5, -280)" d="m 197.91 179.79 v 200.42 l 113.18 -100.21 z" stroke-linecap="round" />
</g>
		<g transform="matrix(1.33 0 0 1.33 -359.23 383.55)"  >
<path style="stroke: none; stroke-width: 1; stroke-dasharray: none; stroke-linecap: butt; stroke-dashoffset: 0; stroke-linejoin: miter; stroke-miterlimit: 4; fill: rgb(0,0,0); fill-rule: nonzero; opacity: 1;"  transform=" translate(-10.6, 10.73)" d="m 19.734 -1.1875 c -1.0117 0.53125 -2.0703 0.93359 -3.1719 1.2031 c -1.1055 0.26953 -2.2578 0.40625 -3.4531 0.40625 c -3.5859 0 -6.4219 -1 -8.5156 -3 c -2.0859 -2 -3.125 -4.7109 -3.125 -8.1406 c 0 -3.4375 1.0391 -6.1562 3.125 -8.1562 c 2.0938 -2 4.9297 -3 8.5156 -3 c 1.1953 0 2.3477 0.13672 3.4531 0.40625 c 1.1016 0.27344 2.1602 0.66797 3.1719 1.1875 v 4.4531 c -1.0234 -0.69531 -2.0312 -1.207 -3.0312 -1.5312 c -1 -0.33203 -2.0547 -0.5 -3.1562 -0.5 c -1.9688 0 -3.5234 0.63672 -4.6562 1.9062 c -1.1367 1.2617 -1.7031 3.0078 -1.7031 5.2344 c 0 2.2188 0.56641 3.9648 1.7031 5.2344 c 1.1328 1.2617 2.6875 1.8906 4.6562 1.8906 c 1.1016 0 2.1562 -0.16016 3.1562 -0.48438 c 1 -0.33203 2.0078 -0.84766 3.0312 -1.5469 z" stroke-linecap="round" />
</g>
		<g transform="matrix(1.33 0 0 1.33 -333.24 386.87)"  >
<path style="stroke: none; stroke-width: 1; stroke-dasharray: none; stroke-linecap: butt; stroke-dashoffset: 0; stroke-linejoin: miter; stroke-miterlimit: 4; fill: rgb(0,0,0); fill-rule: nonzero; opacity: 1;"  transform=" translate(-8.46, 8.25)" d="m 14.453 -11.734 c -0.46094 -0.20703 -0.91406 -0.35938 -1.3594 -0.45312 c -0.4375 -0.10156 -0.88672 -0.15625 -1.3438 -0.15625 c -1.3242 0 -2.3438 0.42969 -3.0625 1.2812 c -0.71094 0.84375 -1.0625 2.0586 -1.0625 3.6406 v 7.4219 h -5.1562 v -16.109 h 5.1562 v 2.6406 c 0.66406 -1.0508 1.4258 -1.8164 2.2812 -2.2969 c 0.85156 -0.48828 1.8828 -0.73438 3.0938 -0.73438 c 0.16406 0 0.34766 0.007812 0.54688 0.015625 c 0.20703 0.011719 0.50391 0.042969 0.89062 0.09375 z" stroke-linecap="round" />
</g>
		<g transform="matrix(1.33 0 0 1.33 -311.92 387.15)"  >
<path style="stroke: none; stroke-width: 1; stroke-dasharray: none; stroke-linecap: butt; stroke-dashoffset: 0; stroke-linejoin: miter; stroke-miterlimit: 4; fill: rgb(0,0,0); fill-rule: nonzero; opacity: 1;"  transform=" translate(-9.91, 8.04)" d="m 18.562 -8.0938 v 1.4531 h -12.047 c 0.125 1.2109 0.5625 2.1211 1.3125 2.7344 c 0.75 0.60547 1.7969 0.90625 3.1406 0.90625 c 1.082 0 2.1914 -0.16016 3.3281 -0.48438 c 1.1328 -0.32031 2.3008 -0.8125 3.5 -1.4688 v 3.9688 c -1.2188 0.46875 -2.4375 0.82031 -3.6562 1.0469 c -1.2188 0.23828 -2.4375 0.35938 -3.6562 0.35938 c -2.918 0 -5.1836 -0.73828 -6.7969 -2.2188 c -1.6172 -1.4883 -2.4219 -3.5703 -2.4219 -6.25 c 0 -2.625 0.78906 -4.6875 2.375 -6.1875 c 1.5938 -1.5078 3.7812 -2.2656 6.5625 -2.2656 c 2.5312 0 4.5547 0.76562 6.0781 2.2969 c 1.5195 1.5234 2.2812 3.5586 2.2812 6.1094 z m -5.2969 -1.7188 c 0 -0.97656 -0.28906 -1.7656 -0.85938 -2.3594 c -0.57422 -0.60156 -1.3203 -0.90625 -2.2344 -0.90625 c -1 0 -1.8125 0.28125 -2.4375 0.84375 c -0.61719 0.5625 -1 1.3711 -1.1562 2.4219 z" stroke-linecap="round" />
</g>
		<g transform="matrix(1.33 0 0 1.33 -285.94 387.15)"  >
<path style="stroke: none; stroke-width: 1; stroke-dasharray: none; stroke-linecap: butt; stroke-dashoffset: 0; stroke-linejoin: miter; stroke-miterlimit: 4; fill: rgb(0,0,0); fill-rule: nonzero; opacity: 1;"  transform=" translate(-9.41, 8.04)" d="m 9.7031 -7.25 c -1.0742 0 -1.8867 0.18359 -2.4375 0.54688 c -0.54297 0.36719 -0.8125 0.90234 -0.8125 1.6094 c 0 0.65625 0.21875 1.1719 0.65625 1.5469 c 0.4375 0.36719 1.0469 0.54688 1.8281 0.54688 c 0.96875 0 1.7812 -0.34766 2.4375 -1.0469 c 0.66406 -0.69531 1 -1.5664 1 -2.6094 v -0.59375 z m 7.8594 -1.9375 v 9.1875 h -5.1875 v -2.3906 c -0.6875 0.98047 -1.4648 1.6953 -2.3281 2.1406 c -0.86719 0.44531 -1.918 0.67188 -3.1562 0.67188 c -1.668 0 -3.0234 -0.48438 -4.0625 -1.4531 c -1.043 -0.97656 -1.5625 -2.2422 -1.5625 -3.7969 c 0 -1.8945 0.64844 -3.2812 1.9531 -4.1562 c 1.3008 -0.88281 3.3438 -1.3281 6.125 -1.3281 h 3.0312 v -0.40625 c 0 -0.8125 -0.32422 -1.4062 -0.96875 -1.7812 c -0.63672 -0.38281 -1.6367 -0.57812 -3 -0.57812 c -1.1055 0 -2.1328 0.10938 -3.0781 0.32812 c -0.94922 0.21875 -1.8359 0.55469 -2.6562 1 v -3.9375 c 1.1016 -0.26953 2.2109 -0.47266 3.3281 -0.60938 c 1.1133 -0.13281 2.2266 -0.20312 3.3438 -0.20312 c 2.9062 0 5 0.57422 6.2812 1.7188 c 1.2891 1.1484 1.9375 3.0117 1.9375 5.5938 z" stroke-linecap="round" />
</g>
		<g transform="matrix(1.33 0 0 1.33 -262.77 384.07)"  >
<path style="stroke: none; stroke-width: 1; stroke-dasharray: none; stroke-linecap: butt; stroke-dashoffset: 0; stroke-linejoin: miter; stroke-miterlimit: 4; fill: rgb(0,0,0); fill-rule: nonzero; opacity: 1;"  transform=" translate(-6.9, 10.34)" d="m 8.0938 -20.688 v 4.5781 h 5.3125 v 3.6719 h -5.3125 v 6.8438 c 0 0.75 0.14844 1.2578 0.45312 1.5156 c 0.30078 0.26172 0.89062 0.39062 1.7656 0.39062 h 2.6562 v 3.6875 h -4.4219 c -2.0312 0 -3.4766 -0.42188 -4.3281 -1.2656 c -0.84375 -0.85156 -1.2656 -2.2969 -1.2656 -4.3281 v -6.8438 h -2.5625 v -3.6719 h 2.5625 v -4.5781 z" stroke-linecap="round" />
</g>
		<g transform="matrix(1.33 0 0 1.33 -239.97 387.15)"  >
<path style="stroke: none; stroke-width: 1; stroke-dasharray: none; stroke-linecap: butt; stroke-dashoffset: 0; stroke-linejoin: miter; stroke-miterlimit: 4; fill: rgb(0,0,0); fill-rule: nonzero; opacity: 1;"  transform=" translate(-9.91, 8.04)" d="m 18.562 -8.0938 v 1.4531 h -12.047 c 0.125 1.2109 0.5625 2.1211 1.3125 2.7344 c 0.75 0.60547 1.7969 0.90625 3.1406 0.90625 c 1.082 0 2.1914 -0.16016 3.3281 -0.48438 c 1.1328 -0.32031 2.3008 -0.8125 3.5 -1.4688 v 3.9688 c -1.2188 0.46875 -2.4375 0.82031 -3.6562 1.0469 c -1.2188 0.23828 -2.4375 0.35938 -3.6562 0.35938 c -2.918 0 -5.1836 -0.73828 -6.7969 -2.2188 c -1.6172 -1.4883 -2.4219 -3.5703 -2.4219 -6.25 c 0 -2.625 0.78906 -4.6875 2.375 -6.1875 c 1.5938 -1.5078 3.7812 -2.2656 6.5625 -2.2656 c 2.5312 0 4.5547 0.76562 6.0781 2.2969 c 1.5195 1.5234 2.2812 3.5586 2.2812 6.1094 z m -5.2969 -1.7188 c 0 -0.97656 -0.28906 -1.7656 -0.85938 -2.3594 c -0.57422 -0.60156 -1.3203 -0.90625 -2.2344 -0.90625 c -1 0 -1.8125 0.28125 -2.4375 0.84375 c -0.61719 0.5625 -1 1.3711 -1.1562 2.4219 z" stroke-linecap="round" />
</g>
		<g transform="matrix(1.33 0 0 1.33 -213.23 383.22)"  >
<path style="stroke: none; stroke-width: 1; stroke-dasharray: none; stroke-linecap: butt; stroke-dashoffset: 0; stroke-linejoin: miter; stroke-miterlimit: 4; fill: rgb(0,0,0); fill-rule: nonzero; opacity: 1;"  transform=" translate(-9.98, 10.98)" d="m 13.438 -13.75 v -8.6406 h 5.1875 v 22.391 h -5.1875 v -2.3281 c -0.71094 0.94922 -1.4922 1.6484 -2.3438 2.0938 c -0.85547 0.4375 -1.8438 0.65625 -2.9688 0.65625 c -1.9805 0 -3.6094 -0.78516 -4.8906 -2.3594 c -1.2734 -1.582 -1.9062 -3.6172 -1.9062 -6.1094 c 0 -2.4766 0.63281 -4.5039 1.9062 -6.0781 c 1.2812 -1.582 2.9102 -2.375 4.8906 -2.375 c 1.1133 0 2.0977 0.22656 2.9531 0.67188 c 0.86328 0.4375 1.6484 1.1328 2.3594 2.0781 z m -3.3906 10.422 c 1.1016 0 1.9414 -0.39844 2.5156 -1.2031 c 0.58203 -0.80078 0.875 -1.9727 0.875 -3.5156 c 0 -1.5312 -0.29297 -2.6953 -0.875 -3.5 c -0.57422 -0.8125 -1.4141 -1.2188 -2.5156 -1.2188 c -1.0938 0 -1.9336 0.40625 -2.5156 1.2188 c -0.58594 0.80469 -0.875 1.9688 -0.875 3.5 c 0 1.543 0.28906 2.7148 0.875 3.5156 c 0.58203 0.80469 1.4219 1.2031 2.5156 1.2031 z" stroke-linecap="round" />
</g>
		<g transform="matrix(1.33 0 0 1.33 -169.9 383.21)"  >
<path style="stroke: none; stroke-width: 1; stroke-dasharray: none; stroke-linecap: butt; stroke-dashoffset: 0; stroke-linejoin: miter; stroke-miterlimit: 4; fill: rgb(0,0,0); fill-rule: nonzero; opacity: 1;"  transform=" translate(-11.12, 10.98)" d="m 11.047 -3.3281 c 1.1016 0 1.9453 -0.39844 2.5312 -1.2031 c 0.58203 -0.80078 0.875 -1.9727 0.875 -3.5156 c 0 -1.5312 -0.29297 -2.6953 -0.875 -3.5 c -0.58594 -0.8125 -1.4297 -1.2188 -2.5312 -1.2188 c -1.1055 0 -1.9531 0.40625 -2.5469 1.2188 c -0.58594 0.8125 -0.875 1.9805 -0.875 3.5 c 0 1.5312 0.28906 2.7031 0.875 3.5156 c 0.59375 0.80469 1.4414 1.2031 2.5469 1.2031 z m -3.4219 -10.422 c 0.70703 -0.94531 1.4922 -1.6406 2.3594 -2.0781 c 0.86328 -0.44531 1.8594 -0.67188 2.9844 -0.67188 c 1.9766 0 3.6016 0.79297 4.875 2.375 c 1.2812 1.5742 1.9219 3.6016 1.9219 6.0781 c 0 2.4922 -0.64062 4.5273 -1.9219 6.1094 c -1.2734 1.5742 -2.8984 2.3594 -4.875 2.3594 c -1.125 0 -2.1211 -0.22656 -2.9844 -0.67188 c -0.86719 -0.44531 -1.6523 -1.1406 -2.3594 -2.0781 v 2.3281 h -5.1562 v -22.391 h 5.1562 z" stroke-linecap="round" />
</g>
		<g transform="matrix(1.33 0 0 1.33 -143.9 391.36)"  >
<path style="stroke: none; stroke-width: 1; stroke-dasharray: none; stroke-linecap: butt; stroke-dashoffset: 0; stroke-linejoin: miter; stroke-miterlimit: 4; fill: rgb(0,0,0); fill-rule: nonzero; opacity: 1;"  transform=" translate(-9.52, 4.87)" d="m 0.35938 -16.109 h 5.1562 l 4.3281 10.922 l 3.6875 -10.922 h 5.1406 l -6.7656 17.641 c -0.6875 1.7891 -1.4844 3.0391 -2.3906 3.75 c -0.90625 0.71875 -2.1055 1.0781 -3.5938 1.0781 h -2.9688 v -3.375 h 1.6094 c 0.875 0 1.5078 -0.14062 1.9062 -0.42188 c 0.39453 -0.28125 0.70312 -0.78125 0.92188 -1.5 l 0.15625 -0.4375 z" stroke-linecap="round" />
</g>
		<g transform="matrix(1.33 0 0 1.33 -100.85 383.53)"  >
<path style="stroke: none; stroke-width: 1; stroke-dasharray: none; stroke-linecap: butt; stroke-dashoffset: 0; stroke-linejoin: miter; stroke-miterlimit: 4; fill: rgb(0,0,0); fill-rule: nonzero; opacity: 1;"  transform=" translate(-12.33, 10.74)" d="m 2.7031 -21.484 h 6.1875 l 7.8125 14.734 v -14.734 h 5.25 v 21.484 h -6.1875 l -7.8125 -14.734 v 14.734 h -5.25 z" stroke-linecap="round" />
</g>
		<g transform="matrix(1.33 0 0 1.33 -77.65 382.93)"  >
<path style="stroke: none; stroke-width: 1; stroke-dasharray: none; stroke-linecap: butt; stroke-dashoffset: 0; stroke-linejoin: miter; stroke-miterlimit: 4; fill: rgb(0,0,0); fill-rule: nonzero; opacity: 1;"  transform=" translate(-5.05, 11.2)" d="m 2.4688 -16.109 h 5.1562 v 16.109 h -5.1562 z m 0 -6.2812 h 5.1562 v 4.2031 h -5.1562 z" stroke-linecap="round" />
</g>
		<g transform="matrix(1.33 0 0 1.33 -64.19 382.93)"  >
<path style="stroke: none; stroke-width: 1; stroke-dasharray: none; stroke-linecap: butt; stroke-dashoffset: 0; stroke-linejoin: miter; stroke-miterlimit: 4; fill: rgb(0,0,0); fill-rule: nonzero; opacity: 1;"  transform=" translate(-5.05, 11.2)" d="m 2.4688 -22.391 h 5.1562 v 22.391 h -5.1562 z" stroke-linecap="round" />
</g>
		<g transform="matrix(1.33 0 0 1.33 -43.96 387.15)"  >
<path style="stroke: none; stroke-width: 1; stroke-dasharray: none; stroke-linecap: butt; stroke-dashoffset: 0; stroke-linejoin: miter; stroke-miterlimit: 4; fill: rgb(0,0,0); fill-rule: nonzero; opacity: 1;"  transform=" translate(-10.13, 8.04)" d="m 10.141 -12.828 c -1.1367 0 -2.0078 0.41406 -2.6094 1.2344 c -0.59375 0.82422 -0.89062 2.0078 -0.89062 3.5469 c 0 1.543 0.29688 2.7266 0.89062 3.5469 c 0.60156 0.82422 1.4727 1.2344 2.6094 1.2344 c 1.125 0 1.9844 -0.41016 2.5781 -1.2344 c 0.59375 -0.82031 0.89062 -2.0039 0.89062 -3.5469 c 0 -1.5391 -0.29688 -2.7227 -0.89062 -3.5469 c -0.59375 -0.82031 -1.4531 -1.2344 -2.5781 -1.2344 z m 0 -3.6719 c 2.7695 0 4.9375 0.75 6.5 2.25 c 1.5625 1.4922 2.3438 3.5586 2.3438 6.2031 c 0 2.6484 -0.78125 4.7188 -2.3438 6.2188 s -3.7305 2.25 -6.5 2.25 c -2.7812 0 -4.9609 -0.75 -6.5312 -2.25 c -1.5625 -1.5 -2.3438 -3.5703 -2.3438 -6.2188 c 0 -2.6445 0.78125 -4.7109 2.3438 -6.2031 c 1.5703 -1.5 3.75 -2.25 6.5312 -2.25 z" stroke-linecap="round" />
</g>
		<g transform="matrix(1.33 0 0 1.33 -17.78 391.36)"  >
<path style="stroke: none; stroke-width: 1; stroke-dasharray: none; stroke-linecap: butt; stroke-dashoffset: 0; stroke-linejoin: miter; stroke-miterlimit: 4; fill: rgb(0,0,0); fill-rule: nonzero; opacity: 1;"  transform=" translate(-9.52, 4.87)" d="m 0.35938 -16.109 h 5.1562 l 4.3281 10.922 l 3.6875 -10.922 h 5.1406 l -6.7656 17.641 c -0.6875 1.7891 -1.4844 3.0391 -2.3906 3.75 c -0.90625 0.71875 -2.1055 1.0781 -3.5938 1.0781 h -2.9688 v -3.375 h 1.6094 c 0.875 0 1.5078 -0.14062 1.9062 -0.42188 c 0.39453 -0.28125 0.70312 -0.78125 0.92188 -1.5 l 0.15625 -0.4375 z" stroke-linecap="round" />
</g>
		<g transform="matrix(1.33 0 0 1.33 22.95 383.55)"  >
<path style="stroke: none; stroke-width: 1; stroke-dasharray: none; stroke-linecap: butt; stroke-dashoffset: 0; stroke-linejoin: miter; stroke-miterlimit: 4; fill: rgb(0,0,0); fill-rule: nonzero; opacity: 1;"  transform=" translate(-10.59, 10.73)" d="m 17.656 -20.812 v 4.5469 c -1.1797 -0.51953 -2.3281 -0.91406 -3.4531 -1.1875 c -1.125 -0.26953 -2.1875 -0.40625 -3.1875 -0.40625 c -1.3242 0 -2.3047 0.18359 -2.9375 0.54688 c -0.625 0.36719 -0.9375 0.93359 -0.9375 1.7031 c 0 0.57422 0.21094 1.0234 0.64062 1.3438 c 0.42578 0.32422 1.1953 0.60156 2.3125 0.82812 l 2.3594 0.46875 c 2.3945 0.48047 4.0938 1.2109 5.0938 2.1875 c 1.0078 0.98047 1.5156 2.3711 1.5156 4.1719 c 0 2.375 -0.70312 4.1406 -2.1094 5.2969 s -3.5547 1.7344 -6.4375 1.7344 c -1.3672 0 -2.7344 -0.13281 -4.1094 -0.39062 c -1.3672 -0.25781 -2.7344 -0.64453 -4.1094 -1.1562 v -4.6719 c 1.375 0.73047 2.7031 1.2812 3.9844 1.6562 c 1.2812 0.36719 2.5156 0.54688 3.7031 0.54688 c 1.207 0 2.1328 -0.20312 2.7812 -0.60938 c 0.64453 -0.40625 0.96875 -0.97656 0.96875 -1.7188 c 0 -0.67578 -0.21875 -1.1953 -0.65625 -1.5625 c -0.4375 -0.36328 -1.3125 -0.6875 -2.625 -0.96875 l -2.1406 -0.48438 c -2.1484 -0.45703 -3.7188 -1.1875 -4.7188 -2.1875 c -0.99219 -1.0078 -1.4844 -2.3672 -1.4844 -4.0781 c 0 -2.1445 0.69141 -3.7891 2.0781 -4.9375 c 1.3828 -1.1562 3.3672 -1.7344 5.9531 -1.7344 c 1.1875 0 2.3984 0.089844 3.6406 0.26562 c 1.25 0.17969 2.5391 0.44531 3.875 0.79688 z" stroke-linecap="round" />
</g>
		<g transform="matrix(1.33 0 0 1.33 50.64 387.15)"  >
<path style="stroke: none; stroke-width: 1; stroke-dasharray: none; stroke-linecap: butt; stroke-dashoffset: 0; stroke-linejoin: miter; stroke-miterlimit: 4; fill: rgb(0,0,0); fill-rule: nonzero; opacity: 1;"  transform=" translate(-10.13, 8.04)" d="m 10.141 -12.828 c -1.1367 0 -2.0078 0.41406 -2.6094 1.2344 c -0.59375 0.82422 -0.89062 2.0078 -0.89062 3.5469 c 0 1.543 0.29688 2.7266 0.89062 3.5469 c 0.60156 0.82422 1.4727 1.2344 2.6094 1.2344 c 1.125 0 1.9844 -0.41016 2.5781 -1.2344 c 0.59375 -0.82031 0.89062 -2.0039 0.89062 -3.5469 c 0 -1.5391 -0.29688 -2.7227 -0.89062 -3.5469 c -0.59375 -0.82031 -1.4531 -1.2344 -2.5781 -1.2344 z m 0 -3.6719 c 2.7695 0 4.9375 0.75 6.5 2.25 c 1.5625 1.4922 2.3438 3.5586 2.3438 6.2031 c 0 2.6484 -0.78125 4.7188 -2.3438 6.2188 s -3.7305 2.25 -6.5 2.25 c -2.7812 0 -4.9609 -0.75 -6.5312 -2.25 c -1.5625 -1.5 -2.3438 -3.5703 -2.3438 -6.2188 c 0 -2.6445 0.78125 -4.7109 2.3438 -6.2031 c 1.5703 -1.5 3.75 -2.25 6.5312 -2.25 z" stroke-linecap="round" />
</g>
		<g transform="matrix(1.33 0 0 1.33 84.67 386.87)"  >
<path style="stroke: none; stroke-width: 1; stroke-dasharray: none; stroke-linecap: butt; stroke-dashoffset: 0; stroke-linejoin: miter; stroke-miterlimit: 4; fill: rgb(0,0,0); fill-rule: nonzero; opacity: 1;"  transform=" translate(-15.41, 8.25)" d="m 17.406 -13.438 c 0.65625 -1 1.4297 -1.7578 2.3281 -2.2812 c 0.89453 -0.51953 1.8789 -0.78125 2.9531 -0.78125 c 1.8516 0 3.2656 0.57422 4.2344 1.7188 c 0.96875 1.1367 1.4531 2.793 1.4531 4.9688 v 9.8125 h -5.1875 v -8.4062 c 0.007812 -0.125 0.015625 -0.25391 0.015625 -0.39062 c 0.007813 -0.13281 0.015625 -0.32812 0.015625 -0.57812 c 0 -1.1328 -0.16797 -1.957 -0.5 -2.4688 c -0.33594 -0.51953 -0.875 -0.78125 -1.625 -0.78125 c -0.98047 0 -1.7344 0.40625 -2.2656 1.2188 c -0.53125 0.80469 -0.80859 1.9688 -0.82812 3.5 v 7.9062 h -5.1719 v -8.4062 c 0 -1.7812 -0.15625 -2.9258 -0.46875 -3.4375 c -0.30469 -0.51953 -0.85156 -0.78125 -1.6406 -0.78125 c -0.99219 0 -1.7578 0.40625 -2.2969 1.2188 c -0.53125 0.8125 -0.79688 1.9766 -0.79688 3.4844 v 7.9219 h -5.1719 v -16.109 h 5.1719 v 2.3594 c 0.63281 -0.91406 1.3594 -1.6016 2.1719 -2.0625 c 0.82031 -0.45703 1.7266 -0.6875 2.7188 -0.6875 c 1.1133 0 2.0977 0.27344 2.9531 0.8125 c 0.85156 0.53125 1.5 1.2812 1.9375 2.25 z" stroke-linecap="round" />
</g>
		<g transform="matrix(1.33 0 0 1.33 -364.26 422.23)"  >
<path style="stroke: none; stroke-width: 1; stroke-dasharray: none; stroke-linecap: butt; stroke-dashoffset: 0; stroke-linejoin: miter; stroke-miterlimit: 4; fill: rgb(0,0,0); fill-rule: nonzero; opacity: 1;"  transform=" translate(-6.82, 11.2)" d="m 13.078 -22.391 v 3.375 h -2.8438 c -0.73047 0 -1.2422 0.13672 -1.5312 0.40625 c -0.28125 0.26172 -0.42188 0.71875 -0.42188 1.375 v 1.125 h 4.3906 v 3.6719 h -4.3906 v 12.438 h -5.1562 v -12.438 h -2.5625 v -3.6719 h 2.5625 v -1.125 c 0 -1.7578 0.48828 -3.0547 1.4688 -3.8906 c 0.97656 -0.84375 2.4922 -1.2656 4.5469 -1.2656 z" stroke-linecap="round" />
</g>
		<g transform="matrix(1.33 0 0 1.33 -344.98 426.17)"  >
<path style="stroke: none; stroke-width: 1; stroke-dasharray: none; stroke-linecap: butt; stroke-dashoffset: 0; stroke-linejoin: miter; stroke-miterlimit: 4; fill: rgb(0,0,0); fill-rule: nonzero; opacity: 1;"  transform=" translate(-8.46, 8.25)" d="m 14.453 -11.734 c -0.46094 -0.20703 -0.91406 -0.35938 -1.3594 -0.45312 c -0.4375 -0.10156 -0.88672 -0.15625 -1.3438 -0.15625 c -1.3242 0 -2.3438 0.42969 -3.0625 1.2812 c -0.71094 0.84375 -1.0625 2.0586 -1.0625 3.6406 v 7.4219 h -5.1562 v -16.109 h 5.1562 v 2.6406 c 0.66406 -1.0508 1.4258 -1.8164 2.2812 -2.2969 c 0.85156 -0.48828 1.8828 -0.73438 3.0938 -0.73438 c 0.16406 0 0.34766 0.007812 0.54688 0.015625 c 0.20703 0.011719 0.50391 0.042969 0.89062 0.09375 z" stroke-linecap="round" />
</g>
		<g transform="matrix(1.33 0 0 1.33 -323.38 426.45)"  >
<path style="stroke: none; stroke-width: 1; stroke-dasharray: none; stroke-linecap: butt; stroke-dashoffset: 0; stroke-linejoin: miter; stroke-miterlimit: 4; fill: rgb(0,0,0); fill-rule: nonzero; opacity: 1;"  transform=" translate(-10.13, 8.04)" d="m 10.141 -12.828 c -1.1367 0 -2.0078 0.41406 -2.6094 1.2344 c -0.59375 0.82422 -0.89062 2.0078 -0.89062 3.5469 c 0 1.543 0.29688 2.7266 0.89062 3.5469 c 0.60156 0.82422 1.4727 1.2344 2.6094 1.2344 c 1.125 0 1.9844 -0.41016 2.5781 -1.2344 c 0.59375 -0.82031 0.89062 -2.0039 0.89062 -3.5469 c 0 -1.5391 -0.29688 -2.7227 -0.89062 -3.5469 c -0.59375 -0.82031 -1.4531 -1.2344 -2.5781 -1.2344 z m 0 -3.6719 c 2.7695 0 4.9375 0.75 6.5 2.25 c 1.5625 1.4922 2.3438 3.5586 2.3438 6.2031 c 0 2.6484 -0.78125 4.7188 -2.3438 6.2188 s -3.7305 2.25 -6.5 2.25 c -2.7812 0 -4.9609 -0.75 -6.5312 -2.25 c -1.5625 -1.5 -2.3438 -3.5703 -2.3438 -6.2188 c 0 -2.6445 0.78125 -4.7109 2.3438 -6.2031 c 1.5703 -1.5 3.75 -2.25 6.5312 -2.25 z" stroke-linecap="round" />
</g>
		<g transform="matrix(1.33 0 0 1.33 -289.36 426.17)"  >
<path style="stroke: none; stroke-width: 1; stroke-dasharray: none; stroke-linecap: butt; stroke-dashoffset: 0; stroke-linejoin: miter; stroke-miterlimit: 4; fill: rgb(0,0,0); fill-rule: nonzero; opacity: 1;"  transform=" translate(-15.41, 8.25)" d="m 17.406 -13.438 c 0.65625 -1 1.4297 -1.7578 2.3281 -2.2812 c 0.89453 -0.51953 1.8789 -0.78125 2.9531 -0.78125 c 1.8516 0 3.2656 0.57422 4.2344 1.7188 c 0.96875 1.1367 1.4531 2.793 1.4531 4.9688 v 9.8125 h -5.1875 v -8.4062 c 0.007812 -0.125 0.015625 -0.25391 0.015625 -0.39062 c 0.007813 -0.13281 0.015625 -0.32812 0.015625 -0.57812 c 0 -1.1328 -0.16797 -1.957 -0.5 -2.4688 c -0.33594 -0.51953 -0.875 -0.78125 -1.625 -0.78125 c -0.98047 0 -1.7344 0.40625 -2.2656 1.2188 c -0.53125 0.80469 -0.80859 1.9688 -0.82812 3.5 v 7.9062 h -5.1719 v -8.4062 c 0 -1.7812 -0.15625 -2.9258 -0.46875 -3.4375 c -0.30469 -0.51953 -0.85156 -0.78125 -1.6406 -0.78125 c -0.99219 0 -1.7578 0.40625 -2.2969 1.2188 c -0.53125 0.8125 -0.79688 1.9766 -0.79688 3.4844 v 7.9219 h -5.1719 v -16.109 h 5.1719 v 2.3594 c 0.63281 -0.91406 1.3594 -1.6016 2.1719 -2.0625 c 0.82031 -0.45703 1.7266 -0.6875 2.7188 -0.6875 c 1.1133 0 2.0977 0.27344 2.9531 0.8125 c 0.85156 0.53125 1.5 1.2812 1.9375 2.25 z" stroke-linecap="round" />
</g>
		<g transform="matrix(1.33 0 0 1.33 -246.06 423.36)"  >
<path style="stroke: none; stroke-width: 1; stroke-dasharray: none; stroke-linecap: butt; stroke-dashoffset: 0; stroke-linejoin: miter; stroke-miterlimit: 4; fill: rgb(0,0,0); fill-rule: nonzero; opacity: 1;"  transform=" translate(-6.9, 10.34)" d="m 8.0938 -20.688 v 4.5781 h 5.3125 v 3.6719 h -5.3125 v 6.8438 c 0 0.75 0.14844 1.2578 0.45312 1.5156 c 0.30078 0.26172 0.89062 0.39062 1.7656 0.39062 h 2.6562 v 3.6875 h -4.4219 c -2.0312 0 -3.4766 -0.42188 -4.3281 -1.2656 c -0.84375 -0.85156 -1.2656 -2.2969 -1.2656 -4.3281 v -6.8438 h -2.5625 v -3.6719 h 2.5625 v -4.5781 z" stroke-linecap="round" />
</g>
		<g transform="matrix(1.33 0 0 1.33 -222.38 422.23)"  >
<path style="stroke: none; stroke-width: 1; stroke-dasharray: none; stroke-linecap: butt; stroke-dashoffset: 0; stroke-linejoin: miter; stroke-miterlimit: 4; fill: rgb(0,0,0); fill-rule: nonzero; opacity: 1;"  transform=" translate(-10.57, 11.2)" d="m 18.672 -9.8125 v 9.8125 h -5.1719 v -7.4844 c 0 -1.4062 -0.03125 -2.375 -0.09375 -2.9062 s -0.17188 -0.91406 -0.32812 -1.1562 c -0.19922 -0.34375 -0.47656 -0.60938 -0.82812 -0.79688 c -0.34375 -0.1875 -0.73438 -0.28125 -1.1719 -0.28125 c -1.0742 0 -1.918 0.41797 -2.5312 1.25 c -0.61719 0.83594 -0.92188 1.9844 -0.92188 3.4531 v 7.9219 h -5.1562 v -22.391 h 5.1562 v 8.6406 c 0.78125 -0.94531 1.6016 -1.6406 2.4688 -2.0781 c 0.875 -0.44531 1.8438 -0.67188 2.9062 -0.67188 c 1.8516 0 3.2578 0.57422 4.2188 1.7188 c 0.96875 1.1367 1.4531 2.793 1.4531 4.9688 z" stroke-linecap="round" />
</g>
		<g transform="matrix(1.33 0 0 1.33 -195.27 426.45)"  >
<path style="stroke: none; stroke-width: 1; stroke-dasharray: none; stroke-linecap: butt; stroke-dashoffset: 0; stroke-linejoin: miter; stroke-miterlimit: 4; fill: rgb(0,0,0); fill-rule: nonzero; opacity: 1;"  transform=" translate(-9.91, 8.04)" d="m 18.562 -8.0938 v 1.4531 h -12.047 c 0.125 1.2109 0.5625 2.1211 1.3125 2.7344 c 0.75 0.60547 1.7969 0.90625 3.1406 0.90625 c 1.082 0 2.1914 -0.16016 3.3281 -0.48438 c 1.1328 -0.32031 2.3008 -0.8125 3.5 -1.4688 v 3.9688 c -1.2188 0.46875 -2.4375 0.82031 -3.6562 1.0469 c -1.2188 0.23828 -2.4375 0.35938 -3.6562 0.35938 c -2.918 0 -5.1836 -0.73828 -6.7969 -2.2188 c -1.6172 -1.4883 -2.4219 -3.5703 -2.4219 -6.25 c 0 -2.625 0.78906 -4.6875 2.375 -6.1875 c 1.5938 -1.5078 3.7812 -2.2656 6.5625 -2.2656 c 2.5312 0 4.5547 0.76562 6.0781 2.2969 c 1.5195 1.5234 2.2812 3.5586 2.2812 6.1094 z m -5.2969 -1.7188 c 0 -0.97656 -0.28906 -1.7656 -0.85938 -2.3594 c -0.57422 -0.60156 -1.3203 -0.90625 -2.2344 -0.90625 c -1 0 -1.8125 0.28125 -2.4375 0.84375 c -0.61719 0.5625 -1 1.3711 -1.1562 2.4219 z" stroke-linecap="round" />
</g>
		<g transform="matrix(1.33 0 0 1.33 -151.72 422.83)"  >
<path style="stroke: none; stroke-width: 1; stroke-dasharray: none; stroke-linecap: butt; stroke-dashoffset: 0; stroke-linejoin: miter; stroke-miterlimit: 4; fill: rgb(0,0,0); fill-rule: nonzero; opacity: 1;"  transform=" translate(-12.33, 10.74)" d="m 2.7031 -21.484 h 6.1875 l 7.8125 14.734 v -14.734 h 5.25 v 21.484 h -6.1875 l -7.8125 -14.734 v 14.734 h -5.25 z" stroke-linecap="round" />
</g>
		<g transform="matrix(1.33 0 0 1.33 -121.77 426.45)"  >
<path style="stroke: none; stroke-width: 1; stroke-dasharray: none; stroke-linecap: butt; stroke-dashoffset: 0; stroke-linejoin: miter; stroke-miterlimit: 4; fill: rgb(0,0,0); fill-rule: nonzero; opacity: 1;"  transform=" translate(-10.13, 8.04)" d="m 10.141 -12.828 c -1.1367 0 -2.0078 0.41406 -2.6094 1.2344 c -0.59375 0.82422 -0.89062 2.0078 -0.89062 3.5469 c 0 1.543 0.29688 2.7266 0.89062 3.5469 c 0.60156 0.82422 1.4727 1.2344 2.6094 1.2344 c 1.125 0 1.9844 -0.41016 2.5781 -1.2344 c 0.59375 -0.82031 0.89062 -2.0039 0.89062 -3.5469 c 0 -1.5391 -0.29688 -2.7227 -0.89062 -3.5469 c -0.59375 -0.82031 -1.4531 -1.2344 -2.5781 -1.2344 z m 0 -3.6719 c 2.7695 0 4.9375 0.75 6.5 2.25 c 1.5625 1.4922 2.3438 3.5586 2.3438 6.2031 c 0 2.6484 -0.78125 4.7188 -2.3438 6.2188 s -3.7305 2.25 -6.5 2.25 c -2.7812 0 -4.9609 -0.75 -6.5312 -2.25 c -1.5625 -1.5 -2.3438 -3.5703 -2.3438 -6.2188 c 0 -2.6445 0.78125 -4.7109 2.3438 -6.2031 c 1.5703 -1.5 3.75 -2.25 6.5312 -2.25 z" stroke-linecap="round" />
</g>
		<g transform="matrix(1.33 0 0 1.33 -94.41 426.71)"  >
<path style="stroke: none; stroke-width: 1; stroke-dasharray: none; stroke-linecap: butt; stroke-dashoffset: 0; stroke-linejoin: miter; stroke-miterlimit: 4; fill: rgb(0,0,0); fill-rule: nonzero; opacity: 1;"  transform=" translate(-10.4, 7.84)" d="m 2.2969 -6.2812 v -9.8281 h 5.1875 v 1.6094 c 0 0.875 -0.007813 1.9766 -0.015625 3.2969 c -0.011719 1.3125 -0.015625 2.1875 -0.015625 2.625 c 0 1.293 0.03125 2.2266 0.09375 2.7969 c 0.070313 0.57422 0.19141 0.99219 0.35938 1.25 c 0.20703 0.33594 0.47656 0.59375 0.8125 0.78125 c 0.34375 0.17969 0.73828 0.26562 1.1875 0.26562 c 1.0703 0 1.9141 -0.41016 2.5312 -1.2344 c 0.61328 -0.82031 0.92188 -1.9688 0.92188 -3.4375 v -7.9531 h 5.1406 v 16.109 h -5.1406 v -2.3281 c -0.78125 0.9375 -1.6094 1.6328 -2.4844 2.0781 c -0.86719 0.44531 -1.8203 0.67188 -2.8594 0.67188 c -1.8672 0 -3.2891 -0.56641 -4.2656 -1.7031 c -0.96875 -1.1445 -1.4531 -2.8125 -1.4531 -5 z" stroke-linecap="round" />
</g>
		<g transform="matrix(1.33 0 0 1.33 -66.2 426.17)"  >
<path style="stroke: none; stroke-width: 1; stroke-dasharray: none; stroke-linecap: butt; stroke-dashoffset: 0; stroke-linejoin: miter; stroke-miterlimit: 4; fill: rgb(0,0,0); fill-rule: nonzero; opacity: 1;"  transform=" translate(-10.57, 8.25)" d="m 18.672 -9.8125 v 9.8125 h -5.1719 v -7.5156 c 0 -1.3828 -0.03125 -2.3438 -0.09375 -2.875 s -0.17188 -0.91406 -0.32812 -1.1562 c -0.19922 -0.34375 -0.47656 -0.60938 -0.82812 -0.79688 c -0.34375 -0.1875 -0.73438 -0.28125 -1.1719 -0.28125 c -1.0742 0 -1.918 0.41797 -2.5312 1.25 c -0.61719 0.83594 -0.92188 1.9844 -0.92188 3.4531 v 7.9219 h -5.1562 v -16.109 h 5.1562 v 2.3594 c 0.78125 -0.94531 1.6016 -1.6406 2.4688 -2.0781 c 0.875 -0.44531 1.8438 -0.67188 2.9062 -0.67188 c 1.8516 0 3.2578 0.57422 4.2188 1.7188 c 0.96875 1.1367 1.4531 2.793 1.4531 4.9688 z" stroke-linecap="round" />
</g>
		<g transform="matrix(1.33 0 0 1.33 -23.24 422.83)"  >
<path style="stroke: none; stroke-width: 1; stroke-dasharray: none; stroke-linecap: butt; stroke-dashoffset: 0; stroke-linejoin: miter; stroke-miterlimit: 4; fill: rgb(0,0,0); fill-rule: nonzero; opacity: 1;"  transform=" translate(-11.55, 10.74)" d="m 2.7031 -21.484 h 9.2031 c 2.7266 0 4.8203 0.60938 6.2812 1.8281 c 1.4688 1.2109 2.2031 2.9375 2.2031 5.1875 s -0.73438 3.9844 -2.2031 5.2031 c -1.4609 1.2109 -3.5547 1.8125 -6.2812 1.8125 h -3.6562 v 7.4531 h -5.5469 z m 5.5469 4.0156 v 6 h 3.0625 c 1.0703 0 1.8984 -0.25781 2.4844 -0.78125 c 0.58203 -0.51953 0.875 -1.2578 0.875 -2.2188 c 0 -0.96875 -0.29297 -1.707 -0.875 -2.2188 c -0.58594 -0.51953 -1.4141 -0.78125 -2.4844 -0.78125 z" stroke-linecap="round" />
</g>
		<g transform="matrix(1.33 0 0 1.33 1.45 426.17)"  >
<path style="stroke: none; stroke-width: 1; stroke-dasharray: none; stroke-linecap: butt; stroke-dashoffset: 0; stroke-linejoin: miter; stroke-miterlimit: 4; fill: rgb(0,0,0); fill-rule: nonzero; opacity: 1;"  transform=" translate(-8.46, 8.25)" d="m 14.453 -11.734 c -0.46094 -0.20703 -0.91406 -0.35938 -1.3594 -0.45312 c -0.4375 -0.10156 -0.88672 -0.15625 -1.3438 -0.15625 c -1.3242 0 -2.3438 0.42969 -3.0625 1.2812 c -0.71094 0.84375 -1.0625 2.0586 -1.0625 3.6406 v 7.4219 h -5.1562 v -16.109 h 5.1562 v 2.6406 c 0.66406 -1.0508 1.4258 -1.8164 2.2812 -2.2969 c 0.85156 -0.48828 1.8828 -0.73438 3.0938 -0.73438 c 0.16406 0 0.34766 0.007812 0.54688 0.015625 c 0.20703 0.011719 0.50391 0.042969 0.89062 0.09375 z" stroke-linecap="round" />
</g>
		<g transform="matrix(1.33 0 0 1.33 23.04 426.45)"  >
<path style="stroke: none; stroke-width: 1; stroke-dasharray: none; stroke-linecap: butt; stroke-dashoffset: 0; stroke-linejoin: miter; stroke-miterlimit: 4; fill: rgb(0,0,0); fill-rule: nonzero; opacity: 1;"  transform=" translate(-10.13, 8.04)" d="m 10.141 -12.828 c -1.1367 0 -2.0078 0.41406 -2.6094 1.2344 c -0.59375 0.82422 -0.89062 2.0078 -0.89062 3.5469 c 0 1.543 0.29688 2.7266 0.89062 3.5469 c 0.60156 0.82422 1.4727 1.2344 2.6094 1.2344 c 1.125 0 1.9844 -0.41016 2.5781 -1.2344 c 0.59375 -0.82031 0.89062 -2.0039 0.89062 -3.5469 c 0 -1.5391 -0.29688 -2.7227 -0.89062 -3.5469 c -0.59375 -0.82031 -1.4531 -1.2344 -2.5781 -1.2344 z m 0 -3.6719 c 2.7695 0 4.9375 0.75 6.5 2.25 c 1.5625 1.4922 2.3438 3.5586 2.3438 6.2031 c 0 2.6484 -0.78125 4.7188 -2.3438 6.2188 s -3.7305 2.25 -6.5 2.25 c -2.7812 0 -4.9609 -0.75 -6.5312 -2.25 c -1.5625 -1.5 -2.3438 -3.5703 -2.3438 -6.2188 c 0 -2.6445 0.78125 -4.7109 2.3438 -6.2031 c 1.5703 -1.5 3.75 -2.25 6.5312 -2.25 z" stroke-linecap="round" />
</g>
		<g transform="matrix(1.33 0 0 1.33 40.98 426.45)"  >
<path style="stroke: none; stroke-width: 1; stroke-dasharray: none; stroke-linecap: butt; stroke-dashoffset: 0; stroke-linejoin: miter; stroke-miterlimit: 4; fill: rgb(0,0,0); fill-rule: nonzero; opacity: 1;"  transform=" translate(-3.32, 8.02)" d="m 2.4688 -16.109 h 5.1562 v 15.828 c 0 2.1562 -0.52344 3.8008 -1.5625 4.9375 c -1.0312 1.1328 -2.5312 1.7031 -4.5 1.7031 h -2.5469 v -3.375 h 0.89062 c 0.97656 0 1.6484 -0.22656 2.0156 -0.67188 c 0.36328 -0.4375 0.54688 -1.3047 0.54688 -2.5938 z m 0 -6.2812 h 5.1562 v 4.2031 h -5.1562 z" stroke-linecap="round" />
</g>
		<g transform="matrix(1.33 0 0 1.33 63.23 426.45)"  >
<path style="stroke: none; stroke-width: 1; stroke-dasharray: none; stroke-linecap: butt; stroke-dashoffset: 0; stroke-linejoin: miter; stroke-miterlimit: 4; fill: rgb(0,0,0); fill-rule: nonzero; opacity: 1;"  transform=" translate(-9.91, 8.04)" d="m 18.562 -8.0938 v 1.4531 h -12.047 c 0.125 1.2109 0.5625 2.1211 1.3125 2.7344 c 0.75 0.60547 1.7969 0.90625 3.1406 0.90625 c 1.082 0 2.1914 -0.16016 3.3281 -0.48438 c 1.1328 -0.32031 2.3008 -0.8125 3.5 -1.4688 v 3.9688 c -1.2188 0.46875 -2.4375 0.82031 -3.6562 1.0469 c -1.2188 0.23828 -2.4375 0.35938 -3.6562 0.35938 c -2.918 0 -5.1836 -0.73828 -6.7969 -2.2188 c -1.6172 -1.4883 -2.4219 -3.5703 -2.4219 -6.25 c 0 -2.625 0.78906 -4.6875 2.375 -6.1875 c 1.5938 -1.5078 3.7812 -2.2656 6.5625 -2.2656 c 2.5312 0 4.5547 0.76562 6.0781 2.2969 c 1.5195 1.5234 2.2812 3.5586 2.2812 6.1094 z m -5.2969 -1.7188 c 0 -0.97656 -0.28906 -1.7656 -0.85938 -2.3594 c -0.57422 -0.60156 -1.3203 -0.90625 -2.2344 -0.90625 c -1 0 -1.8125 0.28125 -2.4375 0.84375 c -0.61719 0.5625 -1 1.3711 -1.1562 2.4219 z" stroke-linecap="round" />
</g>
		<g transform="matrix(1.33 0 0 1.33 87.85 426.45)"  >
<path style="stroke: none; stroke-width: 1; stroke-dasharray: none; stroke-linecap: butt; stroke-dashoffset: 0; stroke-linejoin: miter; stroke-miterlimit: 4; fill: rgb(0,0,0); fill-rule: nonzero; opacity: 1;"  transform=" translate(-8.38, 8.04)" d="m 15.5 -15.609 v 4.2031 c -0.69922 -0.47656 -1.4023 -0.83203 -2.1094 -1.0625 c -0.71094 -0.23828 -1.4453 -0.35938 -2.2031 -0.35938 c -1.4375 0 -2.5586 0.42188 -3.3594 1.2656 c -0.79297 0.84375 -1.1875 2.0156 -1.1875 3.5156 c 0 1.5117 0.39453 2.6875 1.1875 3.5312 c 0.80078 0.83594 1.9219 1.25 3.3594 1.25 c 0.8125 0 1.5781 -0.11719 2.2969 -0.35938 c 0.72656 -0.23828 1.3984 -0.59375 2.0156 -1.0625 v 4.2188 c -0.8125 0.29297 -1.6367 0.50781 -2.4688 0.65625 c -0.82422 0.15625 -1.6523 0.23438 -2.4844 0.23438 c -2.9062 0 -5.1836 -0.74219 -6.8281 -2.2344 c -1.6367 -1.5 -2.4531 -3.5781 -2.4531 -6.2344 s 0.81641 -4.7266 2.4531 -6.2188 c 1.6445 -1.4883 3.9219 -2.2344 6.8281 -2.2344 c 0.84375 0 1.6758 0.074219 2.5 0.21875 c 0.82031 0.14844 1.6406 0.37109 2.4531 0.67188 z" stroke-linecap="round" />
</g>
		<g transform="matrix(1.33 0 0 1.33 109.16 423.36)"  >
<path style="stroke: none; stroke-width: 1; stroke-dasharray: none; stroke-linecap: butt; stroke-dashoffset: 0; stroke-linejoin: miter; stroke-miterlimit: 4; fill: rgb(0,0,0); fill-rule: nonzero; opacity: 1;"  transform=" translate(-6.9, 10.34)" d="m 8.0938 -20.688 v 4.5781 h 5.3125 v 3.6719 h -5.3125 v 6.8438 c 0 0.75 0.14844 1.2578 0.45312 1.5156 c 0.30078 0.26172 0.89062 0.39062 1.7656 0.39062 h 2.6562 v 3.6875 h -4.4219 c -2.0312 0 -3.4766 -0.42188 -4.3281 -1.2656 c -0.84375 -0.85156 -1.2656 -2.2969 -1.2656 -4.3281 v -6.8438 h -2.5625 v -3.6719 h 2.5625 v -4.5781 z" stroke-linecap="round" />
</g>
</g>
</g>
</svg>